<svg width="392" height="120" viewBox="0 0 392 120" fill="none" xmlns="http://www.w3.org/2000/svg">
<path d="M356.023 88.3368C354.032 91.0128 350.728 92.6693 346.703 92.6693C339.12 92.6693 334.842 87.3599 334.842 81.1161C334.842 74.7873 338.824 69.5629 345.814 69.5629C351.744 69.5629 355.642 73.598 355.642 79.2047C355.642 80.394 355.472 81.4984 355.303 82.2204H340.349C340.857 86.2131 343.314 87.8271 346.661 87.8271C348.991 87.8271 351.024 86.8077 352.168 85.2786L356.023 88.3368ZM345.687 73.9803C342.933 73.9803 341.111 75.5094 340.518 78.3127H350.346C350.262 76.1465 348.694 73.9803 345.687 73.9803Z" fill="#1A1A2E"/>
<path d="M324.155 87.5723C326.273 87.5723 327.968 86.5954 328.984 85.1087L333.178 88.3368C331.187 90.9703 328.052 92.6693 324.155 92.6693C316.784 92.6693 312.378 87.3599 312.378 81.1161C312.378 74.8723 316.784 69.5629 324.155 69.5629C328.052 69.5629 331.187 71.2619 333.178 73.8953L328.984 77.1234C327.968 75.6368 326.273 74.6599 324.07 74.6599C320.554 74.6599 317.97 77.3783 317.97 81.1161C317.97 84.8964 320.554 87.5723 324.155 87.5723Z" fill="#1A1A2E"/>
<path d="M287.799 91.8198V70.4124H293.179V72.1114C294.662 70.6672 296.653 69.5629 299.491 69.5629C304.109 69.5629 307.794 72.7485 307.794 79.0773V91.8198H302.372V79.2897C302.372 76.4438 300.762 74.6599 298.136 74.6599C295.424 74.6599 293.984 76.4863 293.179 77.8455V91.8198H287.799Z" fill="#1A1A2E"/>
<path d="M269.862 92.4569C265.583 92.4569 262.66 89.9934 262.66 86.0432C262.66 82.8151 265.159 80.394 269.735 79.6295L276.258 78.5251V77.9729C276.258 75.7218 274.564 74.2776 272.107 74.2776C270.031 74.2776 268.421 75.2545 267.278 76.8261L263.338 73.8104C265.244 71.1769 268.379 69.5629 272.276 69.5629C278.461 69.5629 281.638 73.2582 281.638 77.9729V91.8198H276.258V89.7385C274.903 91.395 272.361 92.4569 269.862 92.4569ZM267.998 85.7883C267.998 87.2325 269.141 88.1669 270.963 88.1669C273.42 88.1669 275.199 87.0201 276.258 85.3211V82.3054L271.175 83.1549C268.93 83.5372 267.998 84.4716 267.998 85.7883Z" fill="#1A1A2E"/>
<path d="M247.08 91.6104V70.2029H252.46V72.3267C253.858 70.8825 255.68 69.7782 258.094 69.7782C258.814 69.7782 259.45 69.9056 259.958 70.0755V75.3849C259.28 75.215 258.56 75.0876 257.586 75.0876C254.959 75.0876 253.265 76.5317 252.46 77.8909V91.6104H247.08Z" fill="#1A1A2E"/>
<path d="M226.723 91.8198V62.0873H244.007V67.0993H232.738V74.1502H242.312V79.1623H232.738V91.8198H226.723Z" fill="#1A1A2E"/>
<path d="M188.057 91.8198V70.4124H193.437V72.1114C194.92 70.6672 196.911 69.5629 199.749 69.5629C204.367 69.5629 208.052 72.7485 208.052 79.0773V91.8198H202.63V79.2897C202.63 76.4438 201.02 74.6599 198.394 74.6599C195.682 74.6599 194.242 76.4863 193.437 77.8455V91.8198H188.057Z" fill="#1A1A2E"/>
<path d="M183.181 88.3368C181.19 91.0128 177.886 92.6693 173.861 92.6693C166.279 92.6693 162 87.3599 162 81.1161C162 74.7873 165.982 69.5629 172.972 69.5629C178.903 69.5629 182.8 73.598 182.8 79.2047C182.8 80.394 182.63 81.4984 182.461 82.2204H167.507C168.015 86.2131 170.472 87.8271 173.819 87.8271C176.149 87.8271 178.182 86.8077 179.326 85.2786L183.181 88.3368ZM172.845 73.9803C170.091 73.9803 168.27 75.5094 167.677 78.3127H177.505C177.42 76.1465 175.853 73.9803 172.845 73.9803Z" fill="#1A1A2E"/>
<path d="M379.122 56.1956V34.7882H384.502V36.9119C385.9 35.4678 387.721 34.3634 390.136 34.3634C390.856 34.3634 391.492 34.4908 392 34.6607V39.9701C391.322 39.8002 390.602 39.6728 389.628 39.6728C387.001 39.6728 385.307 41.1169 384.502 42.4761V56.1956H379.122Z" fill="#1A1A2E"/>
<path d="M370.001 31.0504C368.095 31.0504 366.485 29.4363 366.485 27.5249C366.485 25.6136 368.095 23.9995 370.001 23.9995C371.908 23.9995 373.475 25.6136 373.475 27.5249C373.475 29.4363 371.908 31.0504 370.001 31.0504ZM367.29 56.1956V34.7882H372.67V56.1956H367.29Z" fill="#1A1A2E"/>
<path d="M341.186 56.1955V34.7881H346.566V36.4871C348.049 35.043 350.04 33.9386 352.878 33.9386C357.496 33.9386 361.181 37.1242 361.181 43.453V56.1955H355.759V43.6654C355.759 40.8196 354.149 39.0356 351.522 39.0356C348.811 39.0356 347.371 40.862 346.566 42.2212V56.1955H341.186Z" fill="#1A1A2E"/>
<path d="M336.31 52.7126C334.319 55.3885 331.015 57.045 326.99 57.045C319.407 57.045 315.129 51.7356 315.129 45.4918C315.129 39.163 319.111 33.9386 326.101 33.9386C332.031 33.9386 335.929 37.9737 335.929 43.5804C335.929 44.7697 335.759 45.8741 335.59 46.5962H320.636C321.144 50.5888 323.601 52.2029 326.948 52.2029C329.278 52.2029 331.311 51.1835 332.455 49.6544L336.31 52.7126ZM325.974 38.356C323.22 38.356 321.398 39.8851 320.805 42.6885H330.633C330.549 40.5222 328.981 38.356 325.974 38.356Z" fill="#1A1A2E"/>
<path d="M290.892 34.7881H296.653L302.203 50.0791L307.71 34.7881H313.513L305.719 56.1955H298.644L290.892 34.7881Z" fill="#1A1A2E"/>
<path d="M260.455 56.1956L271.681 26.463H279.56L290.786 56.1956H284.39L281.551 48.4651H269.69L266.852 56.1956H260.455ZM271.554 43.3256H279.687L275.621 32.1547L271.554 43.3256Z" fill="#1A1A2E"/>
<path d="M225.517 56.1955V34.7881H230.897V36.4871C232.379 35.043 234.37 33.9386 237.209 33.9386C241.826 33.9386 245.512 37.1242 245.512 43.453V56.1955H240.089V43.6654C240.089 40.8196 238.48 39.0356 235.853 39.0356C233.142 39.0356 231.702 40.862 230.897 42.2212V56.1955H225.517Z" fill="#1A1A2E"/>
<path d="M208.918 33.9386C215.865 33.9386 220.61 39.0781 220.61 45.4918C220.61 51.9055 215.865 57.045 208.918 57.045C201.97 57.045 197.226 51.9055 197.226 45.4918C197.226 39.0781 201.97 33.9386 208.918 33.9386ZM209.002 51.948C212.434 51.948 215.018 49.1871 215.018 45.4918C215.018 41.754 212.434 39.0356 209.002 39.0356C205.444 39.0356 202.818 41.754 202.818 45.4918C202.818 49.2296 205.444 51.948 209.002 51.948Z" fill="#1A1A2E"/>
<path d="M162 56.1956V26.463H169.498L176.742 38.9507L183.986 26.463H191.484V56.1956H185.469V34.8731L178.86 46.0015H174.624L168.015 34.8731V56.1956H162Z" fill="#1A1A2E"/>
<path fill-rule="evenodd" clip-rule="evenodd" d="M90.0381 4.55033C96.7046 0.740867 105 5.55392 105 13.232V50.1988C105 53.7872 103.077 57.1001 99.9609 58.8804L14.9609 107.452C8.29454 111.261 0.000217184 106.447 0 98.7691V13.2329C0.000142421 5.55462 8.2954 0.74145 14.9619 4.55131L47.5361 23.1665C50.6105 24.9235 54.3845 24.9234 57.459 23.1665L90.0381 4.55033Z" fill="#1A1A2E"/>
<path fill-rule="evenodd" clip-rule="evenodd" d="M131.039 8.54914C137.705 4.73975 146 9.55343 146 17.2316V102.768C146 110.446 137.705 115.26 131.039 111.451L98.4626 92.8357C95.3883 91.0789 91.6142 91.0789 88.5399 92.8356L55.9612 111.451C49.2946 115.26 41 110.447 41 102.769V65.802C41 62.2134 42.9229 58.9 46.0387 57.1196L131.039 8.54914Z" fill="#1A1A2E"/>
<path fill-rule="evenodd" clip-rule="evenodd" d="M131.039 8.54914C137.705 4.73975 146 9.55343 146 17.2316V102.768C146 110.446 137.705 115.26 131.039 111.451L98.4626 92.8357C95.3883 91.0789 91.6142 91.0789 88.5399 92.8356L55.9612 111.451C49.2946 115.26 41 110.447 41 102.769V65.802C41 62.2134 42.9229 58.9 46.0387 57.1196L131.039 8.54914Z" fill="url(#paint0_linear_31_283)"/>
<defs>
<linearGradient id="paint0_linear_31_283" x1="138.5" y1="7.49952" x2="56.0801" y2="85.1155" gradientUnits="userSpaceOnUse">
<stop stop-color="#E63946"/>
<stop offset="1" stop-color="#016AC9"/>
</linearGradient>
</defs>
</svg>
