<svg width="978" height="586" viewBox="0 0 978 586" fill="none" xmlns="http://www.w3.org/2000/svg">
<path d="M395.951 125.133C395.951 112.479 384.253 103.506 367.968 103.506H332.416V146.069H367.968C384.253 146.069 395.951 137.326 395.951 125.133ZM366.133 40.6973H332.416V77.2782H366.133C380.813 77.2782 391.364 69.916 391.364 59.1028C391.364 48.2895 380.813 40.6973 366.133 40.6973ZM375.767 175.288H293.883V11.4785H373.014C406.96 11.4785 430.815 30.3442 430.815 55.8818C430.815 72.6769 421.181 86.2509 407.19 90.1621C423.934 94.3033 435.402 110.178 435.402 129.734C435.402 157.112 410.86 175.288 375.767 175.288Z" fill="white"/>
<path d="M484.454 105.347H513.354H542.254C540.19 90.3922 528.722 79.3488 513.125 79.3488C497.987 79.3488 487.436 89.702 484.454 105.347ZM449.132 115.47C449.132 78.6586 475.967 52.8909 513.813 52.8909C551.429 52.8909 577.118 78.6586 577.118 115.93C577.118 118.921 577.118 123.752 576.659 126.283L484.683 126.053C487.665 142.618 498.904 153.431 514.501 153.431C527.345 153.431 538.126 146.069 541.796 135.716L572.76 140.087C567.026 163.094 542.254 179.889 513.584 179.889C475.738 179.889 449.132 153.431 449.132 115.47Z" fill="white"/>
<path d="M596.86 137.096V83.7202H580.345V57.4923H631.265L600.415 42.6529L602.364 27.8134H631.265V57.4923H657.871V83.7202H631.265V133.645C631.265 143.538 637.228 150.21 646.861 150.21C650.073 150.21 655.119 149.52 659.018 148.37V176.208C651.908 178.509 642.733 179.889 635.393 179.889C611.998 179.889 596.86 162.174 596.86 137.096Z" fill="white"/>
<path d="M683.329 137.096V83.7202H666.815V57.4923H717.734L686.884 42.6529L688.834 27.8134H717.734V57.4923H744.34V83.7202H717.734V133.645C717.734 143.538 723.697 150.21 733.331 150.21C736.542 150.21 741.588 149.52 745.487 148.37V176.208C738.377 178.509 729.202 179.889 721.862 179.889C698.467 179.889 683.329 162.174 683.329 137.096Z" fill="white"/>
<path d="M790.9 105.347H848.7C846.636 90.3922 835.168 79.3488 819.571 79.3488C804.433 79.3488 793.882 89.702 790.9 105.347ZM755.577 115.47C755.577 78.6586 782.413 52.8909 820.259 52.8909C857.875 52.8909 883.564 78.6586 883.564 115.93C883.564 118.921 883.564 123.752 883.105 126.283L791.129 126.053C794.111 142.618 805.35 153.431 820.947 153.431C833.791 153.431 844.572 146.069 848.242 135.716L879.206 140.087C873.472 163.094 848.7 179.889 820.029 179.889C782.184 179.889 755.577 153.431 755.577 115.47Z" fill="white"/>
<path d="M898.84 57.4923H931.869V72.4468C938.75 60.7133 950.448 53.121 963.292 53.121C967.879 53.121 972.696 54.2713 977.283 56.1119V86.7111C970.861 83.9502 963.063 82.5698 958.017 82.5698C943.108 82.5698 933.245 94.9935 933.245 112.709V175.288H898.84V57.4923Z" fill="white"/>
<path d="M374.39 345.625C395.033 345.625 413.612 331.361 418.658 311.805H454.669C449.164 347.926 415.218 378.755 373.473 378.755C323.012 378.755 286.314 341.944 286.314 291.099C286.314 240.253 323.012 203.442 373.473 203.442C414.759 203.442 448.705 234.502 454.669 271.543L418.429 271.313C413.841 251.067 395.492 236.572 374.39 236.572C345.261 236.572 324.847 259.119 324.847 291.099C324.847 323.078 345.49 345.625 374.39 345.625Z" fill="white"/>
<path d="M531.295 347.235C549.185 347.235 562.03 333.201 562.03 314.105C562.03 295.01 549.185 280.976 531.295 280.976C513.404 280.976 500.56 295.01 500.56 314.105C500.56 333.201 513.404 347.235 531.295 347.235ZM562.259 271.543V255.208H596.664V373.003H562.259V356.668C553.085 369.782 539.093 377.604 522.35 377.604C489.321 377.604 466.155 351.377 466.155 314.105C466.155 276.834 489.321 250.606 522.35 250.606C539.093 250.606 553.085 258.429 562.259 271.543Z" fill="white"/>
<path d="M617.028 202.292H651.433V373.003H617.028V202.292Z" fill="white"/>
<path d="M671.69 202.292H706.095V373.003H671.69V202.292Z" fill="white"/>
<path d="M427.603 519.643C427.603 553.233 399.85 576.47 358.335 576.47C316.819 576.47 287.002 551.393 287.002 516.882H321.636C321.636 534.598 337.462 547.252 359.482 547.252C378.29 547.252 389.987 537.819 389.987 524.705C389.987 509.29 372.326 506.99 352.142 504.459C319.801 500.318 288.607 493.415 288.607 455.224C288.607 423.244 315.902 401.158 355.353 401.158C395.033 401.158 423.704 425.085 423.704 457.985H390.217C390.446 441.88 375.996 430.377 356.27 430.377C338.151 430.377 326.223 438.889 326.223 450.853C326.223 466.267 342.508 468.568 363.151 471.329C394.804 475.01 427.603 481.912 427.603 519.643Z" fill="white"/>
<path d="M504.859 448.322C543.622 448.322 570.228 474.09 570.228 511.821C570.228 549.322 543.622 575.32 504.859 575.32C466.325 575.32 439.719 549.322 439.719 511.821C439.719 474.09 466.325 448.322 504.859 448.322ZM504.859 544.951C522.979 544.951 535.594 531.147 535.594 511.821C535.594 492.495 522.979 478.691 504.859 478.691C486.968 478.691 474.353 492.495 474.353 511.821C474.353 531.147 486.968 544.951 504.859 544.951Z" fill="white"/>
<path d="M585.221 400.007H619.626V570.719H585.221V400.007Z" fill="white"/>
<path d="M91.3941 378.633L101.769 417.352L176.082 458.698L216.786 566.357L198.207 452.77L213.283 413.161L186.063 429.769L231.517 341.088L221.142 302.37L210.768 263.652L149.105 313.768L190.019 186.216L179.644 147.498L169.27 108.779L70.0612 18.773L29.1473 146.325L128.356 236.332L49.8963 223.761L60.2707 262.479L70.6452 301.197L169.854 391.204L91.3941 378.633Z" fill="white"/>
</svg>
