<svg width="1378" height="986" viewBox="0 0 1378 986" fill="none" xmlns="http://www.w3.org/2000/svg">
<rect width="1377.82" height="985.13" fill="#1E1400"/>
<path d="M291.394 578.633L301.769 617.351L376.082 658.697L416.786 766.356L398.207 652.769L413.283 613.16L386.063 629.768L431.517 541.087L421.142 502.369L410.768 463.651L349.105 513.767L390.019 386.215L379.644 347.497L369.27 308.779L270.061 218.772L229.147 346.324L328.356 436.331L249.896 423.76L260.271 462.478L270.645 501.196L369.854 591.203L291.394 578.633Z" fill="#FEAA02"/>
<path d="M596.484 323.722C596.484 311.069 584.787 302.096 568.502 302.096H532.95V344.659H568.502C584.787 344.659 596.484 335.916 596.484 323.722ZM566.667 239.287H532.95V275.868H566.667C581.346 275.868 591.897 268.506 591.897 257.693C591.897 246.879 581.346 239.287 566.667 239.287ZM576.3 373.877H494.416V210.068H573.548C607.494 210.068 631.348 228.934 631.348 254.472C631.348 271.267 621.715 284.841 607.723 288.752C624.467 292.893 635.935 308.768 635.935 328.324C635.935 355.702 611.393 373.877 576.3 373.877Z" fill="white"/>
<path d="M684.987 303.936H713.888H742.788C740.723 288.982 729.255 277.939 713.658 277.939C698.52 277.939 687.969 288.292 684.987 303.936ZM649.665 314.06C649.665 277.248 676.501 251.481 714.346 251.481C751.962 251.481 777.651 277.248 777.651 314.52C777.651 317.511 777.651 322.342 777.193 324.873L685.217 324.643C688.199 341.208 699.438 352.021 715.034 352.021C727.879 352.021 738.659 344.659 742.329 334.306L773.293 338.677C767.559 361.684 742.788 378.479 714.117 378.479C676.272 378.479 649.665 352.021 649.665 314.06Z" fill="white"/>
<path d="M797.393 335.686V282.31H780.879V256.082H831.798L800.948 241.243L802.898 226.403H831.798V256.082H858.405V282.31H831.798V332.235C831.798 342.128 837.762 348.8 847.395 348.8C850.606 348.8 855.652 348.11 859.551 346.959V374.798C852.441 377.098 843.266 378.479 835.927 378.479C812.531 378.479 797.393 360.764 797.393 335.686Z" fill="white"/>
<path d="M883.862 335.686V282.31H867.348V256.082H918.267L887.418 241.243L889.367 226.403H918.267V256.082H944.874V282.31H918.267V332.235C918.267 342.128 924.231 348.8 933.864 348.8C937.075 348.8 942.121 348.11 946.021 346.959V374.798C938.91 377.098 929.736 378.479 922.396 378.479C899.001 378.479 883.862 360.764 883.862 335.686Z" fill="white"/>
<path d="M991.433 303.936H1049.23C1047.17 288.982 1035.7 277.939 1020.1 277.939C1004.97 277.939 994.415 288.292 991.433 303.936ZM956.111 314.06C956.111 277.248 982.947 251.481 1020.79 251.481C1058.41 251.481 1084.1 277.248 1084.1 314.52C1084.1 317.511 1084.1 322.342 1083.64 324.873L991.663 324.643C994.645 341.208 1005.88 352.021 1021.48 352.021C1034.32 352.021 1045.11 344.659 1048.77 334.306L1079.74 338.677C1074.01 361.684 1049.23 378.479 1020.56 378.479C982.717 378.479 956.111 352.021 956.111 314.06Z" fill="white"/>
<path d="M1099.37 256.082H1132.4V271.037C1139.28 259.303 1150.98 251.711 1163.83 251.711C1168.41 251.711 1173.23 252.861 1177.82 254.702V285.301C1171.39 282.54 1163.6 281.16 1158.55 281.16C1143.64 281.16 1133.78 293.583 1133.78 311.299V373.877H1099.37V256.082Z" fill="white"/>
<path d="M574.924 544.215C595.567 544.215 614.146 529.95 619.192 510.395H655.202C649.697 546.515 615.751 577.345 574.006 577.345C523.546 577.345 486.847 540.534 486.847 489.688C486.847 438.843 523.546 402.032 574.006 402.032C615.292 402.032 649.239 433.091 655.202 470.133L618.962 469.902C614.375 449.656 596.026 435.162 574.924 435.162C545.794 435.162 525.381 457.709 525.381 489.688C525.381 521.668 546.024 544.215 574.924 544.215Z" fill="white"/>
<path d="M731.828 545.825C749.719 545.825 762.563 531.791 762.563 512.695C762.563 493.6 749.719 479.565 731.828 479.565C713.938 479.565 701.093 493.6 701.093 512.695C701.093 531.791 713.938 545.825 731.828 545.825ZM762.793 470.133V453.798H797.198V571.593H762.793V555.258C753.618 568.372 739.627 576.194 722.883 576.194C689.854 576.194 666.688 549.966 666.688 512.695C666.688 475.424 689.854 449.196 722.883 449.196C739.627 449.196 753.618 457.019 762.793 470.133Z" fill="white"/>
<path d="M817.561 400.882H851.966V571.593H817.561V400.882Z" fill="white"/>
<path d="M872.224 400.882H906.629V571.593H872.224V400.882Z" fill="white"/>
<path d="M628.137 718.233C628.137 751.823 600.384 775.06 558.868 775.06C517.353 775.06 487.535 749.983 487.535 715.472H522.17C522.17 733.188 537.996 745.841 560.015 745.841C578.823 745.841 590.521 736.409 590.521 723.295C590.521 707.88 572.86 705.579 552.675 703.049C520.335 698.907 489.141 692.005 489.141 653.814C489.141 621.834 516.435 599.748 555.886 599.748C595.567 599.748 624.238 623.675 624.238 656.575H590.75C590.979 640.47 576.529 628.966 556.804 628.966C538.684 628.966 526.757 637.479 526.757 649.443C526.757 664.857 543.042 667.158 563.685 669.919C595.337 673.6 628.137 680.502 628.137 718.233Z" fill="white"/>
<path d="M705.392 646.912C744.155 646.912 770.761 672.679 770.761 710.411C770.761 747.912 744.155 773.91 705.392 773.91C666.859 773.91 640.252 747.912 640.252 710.411C640.252 672.679 666.859 646.912 705.392 646.912ZM705.392 743.541C723.512 743.541 736.127 729.737 736.127 710.411C736.127 691.085 723.512 677.281 705.392 677.281C687.501 677.281 674.886 691.085 674.886 710.411C674.886 729.737 687.501 743.541 705.392 743.541Z" fill="white"/>
<path d="M785.754 598.597H820.159V769.308H785.754V598.597Z" fill="white"/>
</svg>
