<svg width="978" height="586" viewBox="0 0 978 586" fill="none" xmlns="http://www.w3.org/2000/svg">
<path d="M395.951 125.131C395.951 112.477 384.253 103.504 367.968 103.504H332.416V146.067H367.968C384.253 146.067 395.951 137.324 395.951 125.131ZM366.133 40.6953H332.416V77.2763H366.133C380.813 77.2763 391.364 69.9141 391.364 59.1008C391.364 48.2876 380.813 40.6953 366.133 40.6953ZM375.767 175.286H293.883V11.4766H373.014C406.96 11.4766 430.815 30.3422 430.815 55.8799C430.815 72.6749 421.181 86.249 407.19 90.1601C423.934 94.3014 435.402 110.176 435.402 129.732C435.402 157.11 410.86 175.286 375.767 175.286Z" fill="white"/>
<path d="M484.454 105.345H513.354H542.254C540.19 90.3902 528.722 79.3469 513.125 79.3469C497.987 79.3469 487.436 89.7 484.454 105.345ZM449.132 115.468C449.132 78.6567 475.967 52.889 513.813 52.889C551.429 52.889 577.118 78.6567 577.118 115.928C577.118 118.919 577.118 123.75 576.659 126.281L484.683 126.051C487.665 142.616 498.904 153.429 514.501 153.429C527.345 153.429 538.126 146.067 541.796 135.714L572.76 140.085C567.026 163.092 542.254 179.887 513.584 179.887C475.738 179.887 449.132 153.429 449.132 115.468Z" fill="white"/>
<path d="M596.86 137.094V83.7182H580.345V57.4903H631.265L600.415 42.6509L602.364 27.8115H631.265V57.4903H657.871V83.7182H631.265V133.643C631.265 143.536 637.228 150.208 646.861 150.208C650.073 150.208 655.119 149.518 659.018 148.368V176.206C651.908 178.507 642.733 179.887 635.393 179.887C611.998 179.887 596.86 162.172 596.86 137.094Z" fill="white"/>
<path d="M683.329 137.094V83.7182H666.815V57.4903H717.734L686.884 42.6509L688.834 27.8115H717.734V57.4903H744.34V83.7182H717.734V133.643C717.734 143.536 723.697 150.208 733.331 150.208C736.542 150.208 741.588 149.518 745.487 148.368V176.206C738.377 178.507 729.202 179.887 721.862 179.887C698.467 179.887 683.329 162.172 683.329 137.094Z" fill="white"/>
<path d="M790.9 105.345H848.7C846.636 90.3902 835.168 79.3469 819.571 79.3469C804.433 79.3469 793.882 89.7 790.9 105.345ZM755.577 115.468C755.577 78.6567 782.413 52.889 820.259 52.889C857.875 52.889 883.564 78.6567 883.564 115.928C883.564 118.919 883.564 123.75 883.105 126.281L791.129 126.051C794.111 142.616 805.35 153.429 820.947 153.429C833.791 153.429 844.572 146.067 848.242 135.714L879.206 140.085C873.472 163.092 848.7 179.887 820.029 179.887C782.184 179.887 755.577 153.429 755.577 115.468Z" fill="white"/>
<path d="M898.84 57.4903H931.869V72.4448C938.75 60.7113 950.448 53.119 963.292 53.119C967.879 53.119 972.696 54.2694 977.283 56.1099V86.7091C970.861 83.9483 963.063 82.5679 958.017 82.5679C943.108 82.5679 933.245 94.9916 933.245 112.707V175.286H898.84V57.4903Z" fill="white"/>
<path d="M374.39 345.623C395.033 345.623 413.612 331.359 418.658 311.803H454.669C449.164 347.924 415.218 378.753 373.473 378.753C323.012 378.753 286.314 341.942 286.314 291.097C286.314 240.251 323.012 203.44 373.473 203.44C414.759 203.44 448.705 234.5 454.669 271.541L418.429 271.311C413.841 251.065 395.492 236.57 374.39 236.57C345.261 236.57 324.847 259.117 324.847 291.097C324.847 323.076 345.49 345.623 374.39 345.623Z" fill="white"/>
<path d="M531.295 347.233C549.185 347.233 562.03 333.199 562.03 314.104C562.03 295.008 549.185 280.974 531.295 280.974C513.404 280.974 500.56 295.008 500.56 314.104C500.56 333.199 513.404 347.233 531.295 347.233ZM562.259 271.541V255.206H596.664V373.001H562.259V356.666C553.085 369.78 539.093 377.603 522.35 377.603C489.321 377.603 466.155 351.375 466.155 314.104C466.155 276.832 489.321 250.604 522.35 250.604C539.093 250.604 553.085 258.427 562.259 271.541Z" fill="white"/>
<path d="M617.028 202.29H651.433V373.001H617.028V202.29Z" fill="white"/>
<path d="M671.69 202.29H706.095V373.001H671.69V202.29Z" fill="white"/>
<path d="M427.603 519.641C427.603 553.231 399.85 576.468 358.335 576.468C316.819 576.468 287.002 551.391 287.002 516.88H321.636C321.636 534.596 337.462 547.25 359.482 547.25C378.29 547.25 389.987 537.817 389.987 524.703C389.987 509.288 372.326 506.988 352.142 504.457C319.801 500.316 288.607 493.414 288.607 455.222C288.607 423.242 315.902 401.156 355.353 401.156C395.033 401.156 423.704 425.083 423.704 457.983H390.217C390.446 441.878 375.996 430.375 356.27 430.375C338.151 430.375 326.223 438.887 326.223 450.851C326.223 466.265 342.508 468.566 363.151 471.327C394.804 475.008 427.603 481.91 427.603 519.641Z" fill="white"/>
<path d="M504.859 448.32C543.622 448.32 570.228 474.088 570.228 511.819C570.228 549.32 543.622 575.318 504.859 575.318C466.325 575.318 439.719 549.32 439.719 511.819C439.719 474.088 466.325 448.32 504.859 448.32ZM504.859 544.949C522.979 544.949 535.594 531.145 535.594 511.819C535.594 492.493 522.979 478.689 504.859 478.689C486.968 478.689 474.353 492.493 474.353 511.819C474.353 531.145 486.968 544.949 504.859 544.949Z" fill="white"/>
<path d="M585.221 400.005H619.626V570.717H585.221V400.005Z" fill="white"/>
<path d="M91.3941 378.633L101.769 417.351L176.082 458.697L216.786 566.356L198.207 452.769L213.283 413.16L186.063 429.768L231.517 341.087L221.142 302.369L210.768 263.651L149.105 313.767L190.019 186.215L179.644 147.497L169.27 108.779L70.0612 18.7721L29.1473 146.324L128.356 236.331L49.8963 223.76L60.2707 262.478L70.6452 301.196L169.854 391.203L91.3941 378.633Z" fill="#FEAA02"/>
</svg>
