<svg width="1378" height="986" viewBox="0 0 1378 986" fill="none" xmlns="http://www.w3.org/2000/svg">
<rect width="1377.82" height="985.13" fill="white"/>
<path d="M291.394 578.633L301.769 617.352L376.082 658.698L416.786 766.357L398.207 652.77L413.283 613.161L386.063 629.769L431.517 541.088L421.142 502.37L410.768 463.652L349.105 513.768L390.019 386.216L379.644 347.498L369.27 308.779L270.061 218.773L229.147 346.325L328.356 436.332L249.896 423.761L260.271 462.479L270.645 501.197L369.854 591.204L291.394 578.633Z" fill="#FEAA02"/>
<path d="M596.484 323.723C596.484 311.07 584.787 302.097 568.502 302.097H532.95V344.66H568.502C584.787 344.66 596.484 335.917 596.484 323.723ZM566.667 239.288H532.95V275.869H566.667C581.346 275.869 591.897 268.507 591.897 257.694C591.897 246.88 581.346 239.288 566.667 239.288ZM576.3 373.878H494.416V210.069H573.548C607.494 210.069 631.348 228.935 631.348 254.473C631.348 271.268 621.715 284.842 607.723 288.753C624.467 292.894 635.935 308.769 635.935 328.325C635.935 355.703 611.393 373.878 576.3 373.878Z" fill="#1E1400"/>
<path d="M684.987 303.937H713.888H742.788C740.723 288.983 729.255 277.94 713.658 277.94C698.52 277.94 687.969 288.293 684.987 303.937ZM649.665 314.06C649.665 277.249 676.501 251.482 714.346 251.482C751.962 251.482 777.651 277.249 777.651 314.521C777.651 317.512 777.651 322.343 777.193 324.874L685.217 324.644C688.199 341.209 699.438 352.022 715.034 352.022C727.879 352.022 738.659 344.66 742.329 334.307L773.293 338.678C767.559 361.685 742.788 378.48 714.117 378.48C676.272 378.48 649.665 352.022 649.665 314.06Z" fill="#1E1400"/>
<path d="M797.393 335.687V282.311H780.879V256.083H831.798L800.948 241.244L802.898 226.404H831.798V256.083H858.405V282.311H831.798V332.236C831.798 342.129 837.762 348.801 847.395 348.801C850.606 348.801 855.652 348.111 859.551 346.96V374.799C852.441 377.099 843.266 378.48 835.927 378.48C812.531 378.48 797.393 360.764 797.393 335.687Z" fill="#1E1400"/>
<path d="M883.862 335.687V282.311H867.348V256.083H918.267L887.418 241.244L889.367 226.404H918.267V256.083H944.874V282.311H918.267V332.236C918.267 342.129 924.231 348.801 933.864 348.801C937.075 348.801 942.121 348.111 946.021 346.96V374.799C938.91 377.099 929.736 378.48 922.396 378.48C899.001 378.48 883.862 360.764 883.862 335.687Z" fill="#1E1400"/>
<path d="M991.433 303.937H1049.23C1047.17 288.983 1035.7 277.94 1020.1 277.94C1004.97 277.94 994.415 288.293 991.433 303.937ZM956.111 314.06C956.111 277.249 982.947 251.482 1020.79 251.482C1058.41 251.482 1084.1 277.249 1084.1 314.521C1084.1 317.512 1084.1 322.343 1083.64 324.874L991.663 324.644C994.645 341.209 1005.88 352.022 1021.48 352.022C1034.32 352.022 1045.11 344.66 1048.77 334.307L1079.74 338.678C1074.01 361.685 1049.23 378.48 1020.56 378.48C982.717 378.48 956.111 352.022 956.111 314.06Z" fill="#1E1400"/>
<path d="M1099.37 256.083H1132.4V271.038C1139.28 259.304 1150.98 251.712 1163.83 251.712C1168.41 251.712 1173.23 252.862 1177.82 254.703V285.302C1171.39 282.541 1163.6 281.161 1158.55 281.161C1143.64 281.161 1133.78 293.584 1133.78 311.3V373.878H1099.37V256.083Z" fill="#1E1400"/>
<path d="M574.924 544.216C595.567 544.216 614.146 529.951 619.192 510.396H655.202C649.697 546.516 615.751 577.346 574.006 577.346C523.546 577.346 486.847 540.535 486.847 489.689C486.847 438.844 523.546 402.033 574.006 402.033C615.292 402.033 649.239 433.092 655.202 470.134L618.962 469.903C614.375 449.657 596.026 435.163 574.924 435.163C545.794 435.163 525.381 457.71 525.381 489.689C525.381 521.669 546.024 544.216 574.924 544.216Z" fill="#1E1400"/>
<path d="M731.828 545.826C749.719 545.826 762.563 531.792 762.563 512.696C762.563 493.601 749.719 479.566 731.828 479.566C713.938 479.566 701.093 493.601 701.093 512.696C701.093 531.792 713.938 545.826 731.828 545.826ZM762.793 470.134V453.799H797.198V571.594H762.793V555.259C753.618 568.373 739.627 576.195 722.883 576.195C689.854 576.195 666.688 549.967 666.688 512.696C666.688 475.425 689.854 449.197 722.883 449.197C739.627 449.197 753.618 457.02 762.793 470.134Z" fill="#1E1400"/>
<path d="M817.561 400.883H851.966V571.594H817.561V400.883Z" fill="#1E1400"/>
<path d="M872.224 400.883H906.629V571.594H872.224V400.883Z" fill="#1E1400"/>
<path d="M628.137 718.234C628.137 751.824 600.384 775.061 558.868 775.061C517.353 775.061 487.535 749.984 487.535 715.473H522.17C522.17 733.189 537.996 745.842 560.015 745.842C578.823 745.842 590.521 736.41 590.521 723.296C590.521 707.881 572.86 705.58 552.675 703.05C520.335 698.908 489.141 692.006 489.141 653.815C489.141 621.835 516.435 599.749 555.886 599.749C595.567 599.749 624.238 623.676 624.238 656.576H590.75C590.979 640.471 576.529 628.967 556.804 628.967C538.684 628.967 526.757 637.48 526.757 649.444C526.757 664.858 543.042 667.159 563.685 669.92C595.337 673.601 628.137 680.503 628.137 718.234Z" fill="#1E1400"/>
<path d="M705.392 646.913C744.155 646.913 770.761 672.68 770.761 710.412C770.761 747.913 744.155 773.911 705.392 773.911C666.859 773.911 640.252 747.913 640.252 710.412C640.252 672.68 666.859 646.913 705.392 646.913ZM705.392 743.542C723.512 743.542 736.127 729.738 736.127 710.412C736.127 691.086 723.512 677.282 705.392 677.282C687.501 677.282 674.886 691.086 674.886 710.412C674.886 729.738 687.501 743.542 705.392 743.542Z" fill="#1E1400"/>
<path d="M785.754 598.598H820.159V769.309H785.754V598.598Z" fill="#1E1400"/>
</svg>
