<svg width="978" height="586" viewBox="0 0 978 586" fill="none" xmlns="http://www.w3.org/2000/svg">
<path d="M395.951 125.132C395.951 112.478 384.253 103.505 367.968 103.505H332.416V146.068H367.968C384.253 146.068 395.951 137.325 395.951 125.132ZM366.133 40.6963H332.416V77.2773H366.133C380.813 77.2773 391.364 69.915 391.364 59.1018C391.364 48.2886 380.813 40.6963 366.133 40.6963ZM375.767 175.287H293.883V11.4775H373.014C406.96 11.4775 430.815 30.3432 430.815 55.8808C430.815 72.6759 421.181 86.2499 407.19 90.1611C423.934 94.3024 435.402 110.177 435.402 129.733C435.402 157.111 410.86 175.287 375.767 175.287Z" fill="#1E1400"/>
<path d="M484.454 105.346H513.354H542.254C540.19 90.3912 528.722 79.3479 513.125 79.3479C497.987 79.3479 487.436 89.701 484.454 105.346ZM449.132 115.469C449.132 78.6577 475.967 52.8899 513.813 52.8899C551.429 52.8899 577.118 78.6577 577.118 115.929C577.118 118.92 577.118 123.751 576.659 126.282L484.683 126.052C487.665 142.617 498.904 153.43 514.501 153.43C527.346 153.43 538.126 146.068 541.796 135.715L572.76 140.086C567.026 163.093 542.254 179.888 513.584 179.888C475.738 179.888 449.132 153.43 449.132 115.469Z" fill="#1E1400"/>
<path d="M596.86 137.095V83.7192H580.345V57.4913H631.265L600.415 42.6519L602.364 27.8124H631.265V57.4913H657.871V83.7192H631.265V133.644C631.265 143.537 637.228 150.209 646.862 150.209C650.073 150.209 655.119 149.519 659.018 148.369V176.207C651.908 178.508 642.733 179.888 635.393 179.888C611.998 179.888 596.86 162.173 596.86 137.095Z" fill="#1E1400"/>
<path d="M683.329 137.095V83.7192H666.815V57.4913H717.734L686.884 42.6519L688.834 27.8124H717.734V57.4913H744.34V83.7192H717.734V133.644C717.734 143.537 723.697 150.209 733.331 150.209C736.542 150.209 741.588 149.519 745.487 148.369V176.207C738.377 178.508 729.202 179.888 721.863 179.888C698.467 179.888 683.329 162.173 683.329 137.095Z" fill="#1E1400"/>
<path d="M790.9 105.346H848.7C846.636 90.3912 835.168 79.3479 819.571 79.3479C804.433 79.3479 793.882 89.701 790.9 105.346ZM755.578 115.469C755.578 78.6577 782.413 52.8899 820.259 52.8899C857.875 52.8899 883.564 78.6577 883.564 115.929C883.564 118.92 883.564 123.751 883.105 126.282L791.129 126.052C794.111 142.617 805.35 153.43 820.947 153.43C833.792 153.43 844.572 146.068 848.242 135.715L879.206 140.086C873.472 163.093 848.7 179.888 820.03 179.888C782.184 179.888 755.578 153.43 755.578 115.469Z" fill="#1E1400"/>
<path d="M898.84 57.4913H931.869V72.4458C938.75 60.7123 950.448 53.12 963.292 53.12C967.879 53.12 972.696 54.2704 977.283 56.1109V86.7101C970.861 83.9492 963.063 82.5688 958.017 82.5688C943.108 82.5688 933.245 94.9926 933.245 112.708V175.287H898.84V57.4913Z" fill="#1E1400"/>
<path d="M374.39 345.624C395.033 345.624 413.612 331.36 418.658 311.804H454.669C449.164 347.925 415.218 378.754 373.473 378.754C323.012 378.754 286.314 341.943 286.314 291.098C286.314 240.252 323.012 203.441 373.473 203.441C414.759 203.441 448.705 234.501 454.669 271.542L418.429 271.312C413.841 251.066 395.492 236.571 374.39 236.571C345.261 236.571 324.847 259.118 324.847 291.098C324.847 323.077 345.49 345.624 374.39 345.624Z" fill="#1E1400"/>
<path d="M531.295 347.234C549.186 347.234 562.03 333.2 562.03 314.104C562.03 295.009 549.186 280.975 531.295 280.975C513.404 280.975 500.56 295.009 500.56 314.104C500.56 333.2 513.404 347.234 531.295 347.234ZM562.259 271.542V255.207H596.664V373.002H562.259V356.667C553.085 369.781 539.093 377.604 522.35 377.604C489.321 377.604 466.155 351.376 466.155 314.104C466.155 276.833 489.321 250.605 522.35 250.605C539.093 250.605 553.085 258.428 562.259 271.542Z" fill="#1E1400"/>
<path d="M617.028 202.291H651.433V373.002H617.028V202.291Z" fill="#1E1400"/>
<path d="M671.69 202.291H706.095V373.002H671.69V202.291Z" fill="#1E1400"/>
<path d="M427.603 519.642C427.603 553.232 399.85 576.469 358.335 576.469C316.82 576.469 287.002 551.392 287.002 516.881H321.636C321.636 534.597 337.462 547.251 359.482 547.251C378.29 547.251 389.987 537.818 389.987 524.704C389.987 509.289 372.326 506.989 352.142 504.458C319.801 500.317 288.607 493.414 288.607 455.223C288.607 423.243 315.902 401.157 355.353 401.157C395.033 401.157 423.704 425.084 423.704 457.984H390.217C390.446 441.879 375.996 430.376 356.271 430.376C338.151 430.376 326.224 438.888 326.224 450.852C326.224 466.266 342.509 468.567 363.152 471.328C394.804 475.009 427.603 481.911 427.603 519.642Z" fill="#1E1400"/>
<path d="M504.859 448.321C543.622 448.321 570.228 474.089 570.228 511.82C570.228 549.321 543.622 575.319 504.859 575.319C466.325 575.319 439.719 549.321 439.719 511.82C439.719 474.089 466.325 448.321 504.859 448.321ZM504.859 544.95C522.979 544.95 535.594 531.146 535.594 511.82C535.594 492.494 522.979 478.69 504.859 478.69C486.968 478.69 474.353 492.494 474.353 511.82C474.353 531.146 486.968 544.95 504.859 544.95Z" fill="#1E1400"/>
<path d="M585.221 400.006H619.626V570.718H585.221V400.006Z" fill="#1E1400"/>
<path d="M91.3941 378.633L101.769 417.352L176.082 458.698L216.786 566.357L198.207 452.77L213.283 413.161L186.063 429.769L231.517 341.088L221.142 302.37L210.768 263.652L149.105 313.768L190.019 186.216L179.644 147.498L169.27 108.779L70.0612 18.773L29.1473 146.325L128.356 236.332L49.8963 223.761L60.2707 262.479L70.6452 301.197L169.854 391.204L91.3941 378.633Z" fill="#FEAA02"/>
</svg>
